<svg id="Layer_1" data-name="Layer 1" xmlns="http://www.w3.org/2000/svg" viewBox="0 0 200.64 200.45"><defs><style>.cls-1{fill:#003b71;}.cls-2{fill:#c1c5c8;}.cls-3{isolation:isolate;font-size:12px;font-family:ArialMT, Arial;}.cls-4{fill:#e9d822;}</style></defs><title>AtlasOneLogoMockup</title><line class="cls-1" x1="181.49" x2="200.64"/><path class="cls-2" d="M323.64,279.62c1-.5,2-1,3-1.49,0,0,.57-.29,1.58-.85L311.07,246,284.72,294.3c2.11-.51,4.31-1.11,6.56-1.77a201.73,201.73,0,0,0,32.36-12.91" transform="translate(-247.36 -141.14)"/><path class="cls-2" d="M335.7,279.49q-2.22,1.31-4.48,2.56c-2.63,1.44-5.29,2.83-8,4.11A227.89,227.89,0,0,1,285,299.58l-.23.42h62.22Z" transform="translate(-247.36 -141.14)"/><polygon class="cls-2" points="73.55 148.86 97.48 148.45 72.48 65.86 50.58 66.23 15.09 149.86 36.63 149.49 20.57 199.35 68.99 125.39 46.67 124.82 59.75 97.98 73.55 148.86"/><polygon class="cls-1" points="85.43 188.86 110.97 188.42 92.72 132.37 70.43 137.38 85.43 188.86"/><polygon class="cls-2" points="126.64 60.34 126.64 186.86 106.64 186.86 106.64 85.86 90.64 85.86 90.64 80.59 126.64 60.34"/><polygon class="cls-1" points="129.64 56.9 129.64 190.86 109.64 190.86 109.64 83.86 93.64 83.86 93.64 78.29 129.64 56.9"/><path class="cls-2" d="M268,332h1.9l.23-.42c-.57.15-1.14.28-1.71.42" transform="translate(-247.36 -141.14)"/><text class="cls-3" transform="translate(136.39 190.7)">TM</text><polygon class="cls-1" points="75.82 149.86 99.98 149.86 75.82 65.86 53.57 65.86 15.75 149.86 37.68 149.86 20.2 200.45 71.53 125.83 48.49 124.85 62.47 97.7 75.82 149.86"/><polygon class="cls-1" points="86.82 190.86 112.81 190.86 95.23 134.22 72.47 138.87 86.82 190.86"/><path class="cls-4" d="M409.08,243.23a20.86,20.86,0,0,0-4.8-11.37,45.78,45.78,0,0,0-12.84-10.53,62.56,62.56,0,0,0-8.38-4.09c6.9,3.25,11.22,7.09,13.92,10.8,5.66,7.75,4.2,14.93,4.2,14.93-5.46,17.62-25.32,25.58-42.59,29.18a144.4,144.4,0,0,1-17.34,2.47c-3.83.32-6.87.43-8.71.47-1.24,0-1.93,0-1.93,0-.69,0-1.34,0-2-.06a154,154,0,0,1-31.09-3.65c-1.71-.39-3.35-.82-4.92-1.26a93.73,93.73,0,0,1-10.38-3.58,57.18,57.18,0,0,1-16.42-10.05c-4.39-4-5.83-7-5.83-7-5.9-12-.13-21,7.33-27a57.77,57.77,0,0,1,13.1-7.7c-2.83,1.14-5.41,2.28-7.76,3.41a93.2,93.2,0,0,0-16.25,9.67c-1.83,1.4-2.71,2.24-2.71,2.24-15.07,15,1.65,29.21,1.65,29.21,5.64,4.94,12.78,8.72,20.26,11.63a122.67,122.67,0,0,0,14.05,4.46h0l1.31.33a175.79,175.79,0,0,0,30.81,4.67c2.29.09,4.6.12,6.9.08q2,0,4-.12c2.95-.12,5.87-.34,8.7-.61,6.36-.63,12.32-1.54,17.34-2.47,8.85-1.63,14.77-3.28,14.77-3.28,38-10.88,35.65-30.76,35.65-30.76" transform="translate(-247.36 -141.14)"/><polygon class="cls-1" points="85.44 188.87 85.87 190.86 86.82 190.86 86.27 188.86 85.44 188.87"/></svg>