<?xml version="1.0" encoding="utf-8"?>
<!-- Generator: Adobe Illustrator 23.0.1, SVG Export Plug-In . SVG Version: 6.00 Build 0)  -->
<svg version="1.1" id="Layer_1" xmlns="http://www.w3.org/2000/svg" xmlns:xlink="http://www.w3.org/1999/xlink" x="0px" y="0px"
	 viewBox="0 0 612 792" style="enable-background:new 0 0 612 792;" xml:space="preserve">
<style type="text/css">
	.st0{fill:#003B71;}
	.st1{fill:#C1C5C8;}
	.st2{fill:#FFD24F;}
	.st3{font-family:'ArialMT';}
	.st4{font-size:12px;}
</style>
<path class="st0" d="M387.19,339.3l-20.62-37.61c-5.2,4.13-11.5,8.82-18.44,13.42l11.55,21.08l2.99,5.46h25.84L387.19,339.3z"/>
<path class="st0" d="M275.04,330.57l30.74-56.39l9.93-18.22l9.97,18.19l16.96,30.95c5.28-3.38,11.84-7.93,18.43-13.44l-45.46-82.96
	l-66,121.07C255.68,331.11,264.08,331.86,275.04,330.57"/>
<path class="st1" d="M286.04,341.64h1.48l0.23-0.42C287.18,341.37,286.61,341.5,286.04,341.64"/>
<path class="st1" d="M328.31,313.26c1-0.5,1.99-0.97,3.01-1.49c0,0,0.57-0.29,1.58-0.85l-17.16-31.31l-26.35,48.33
	c2.11-0.51,4.31-1.11,6.56-1.77C305.46,323.38,316.22,319.23,328.31,313.26"/>
<path class="st1" d="M338.5,321.13c-1.48,0.87-2.97,1.72-4.48,2.56c-2.63,1.44-5.29,2.83-7.99,4.11c0,0-16.9,8.06-38.28,13.42
	l-0.23,0.42h56.34h5.88L338.5,321.13z"/>
<path class="st2" d="M403.8,231.77c-2.99-4.74-7.46-7.96-12.46-10.15c-6.91-3.03-14.82-4.05-21.2-4.28
	c-6.98-0.26-12.13,0.41-12.13,0.41c9.92-0.47,17.23,1.31,22.6,3.92c11.24,5.47,13.94,14.62,13.94,14.62
	c4.47,23.6-13.52,44.87-31.18,59.55c-6.58,5.47-13.12,10.02-18.44,13.43c-4.21,2.7-7.64,4.68-9.73,5.85
	c-1.41,0.79-2.21,1.19-2.21,1.19c-0.81,0.41-1.57,0.78-2.37,1.17c-14.45,7.2-27.07,11.88-37.98,14.77c-2.22,0.59-4.36,1.1-6.44,1.55
	c-5.12,1.1-9.83,1.82-14.12,2.21c-10.93,0.98-19.18-0.05-25.02-1.54c-7.49-1.9-10.99-4.52-10.99-4.52
	c-14.14-10.24-12.97-24.07-8.06-35.55c2.94-6.88,7.23-12.92,10.37-16.85c-2.56,3.04-4.83,5.93-6.84,8.66
	c-6.92,9.36-10.82,16.73-12.8,21.04c-1.25,2.73-1.75,4.23-1.75,4.23c-8.2,26.41,19.73,32.59,19.73,32.59
	c9.5,2.24,20.02,2.24,30.4,1.02c6.44-0.75,12.82-1.98,18.88-3.44c0.01,0,0.02,0,0.03-0.01c0.57-0.14,1.14-0.27,1.71-0.42
	c21.38-5.36,38.29-13.42,38.29-13.42c2.69-1.29,5.37-2.67,7.99-4.12c1.51-0.83,3-1.69,4.48-2.55c3.32-1.95,6.54-3.98,9.63-6.02
	c6.94-4.6,13.24-9.29,18.44-13.42c9.19-7.28,14.99-12.79,14.99-12.79C418.59,253.22,403.8,231.77,403.8,231.77"/>
<text transform="matrix(1 0 0 1 395.7509 341.2223)" class="st3 st4">TM</text>
</svg>
