<?xml version="1.0" encoding="utf-8"?>
<!-- Generator: Adobe Illustrator 23.0.1, SVG Export Plug-In . SVG Version: 6.00 Build 0)  -->
<svg version="1.1" id="Layer_1" xmlns="http://www.w3.org/2000/svg" xmlns:xlink="http://www.w3.org/1999/xlink" x="0px" y="0px"
	 viewBox="0 0 612 360" style="enable-background:new 0 0 612 360;" xml:space="preserve">
<style type="text/css">
	.st0{fill:white;} <!-- main text -->
	.st1{fill:#C1C5C8;} <!-- A center shading -->
	.st2{fill:#FFD24F;} <!-- swish -->
	.st3{fill:white;} <!-- bottom text -->
</style>
<path class="st0" d="M285.65,216.59c-0.65-1.85-1.07-3.81-1.25-5.85c-0.19-2.04-0.28-4.09-0.28-6.13V140
	c0.65-0.09,1.34-0.18,2.09-0.28c0.65-0.09,1.34-0.16,2.09-0.21c0.74-0.05,1.48-0.07,2.22-0.07c1.49,0,2.97,0.14,4.46,0.42
	c1.49,0.28,2.83,0.83,4.04,1.67c1.2,0.84,2.18,1.98,2.92,3.41c0.74,1.44,1.11,3.32,1.11,5.64v9.75h19.5v14.2h-19.5v29.7
	c0,6.47,2.65,9.71,7.94,9.71c1.3,0,2.53-0.21,3.69-0.63c1.16-0.42,2.2-0.88,3.14-1.39c0.92-0.51,1.74-1.04,2.44-1.6
	c0.69-0.56,1.18-0.97,1.46-1.25c1.39,2.04,2.46,3.81,3.2,5.31c0.75,1.5,1.12,2.9,1.12,4.21c0,1.22-0.49,2.42-1.46,3.59
	c-0.98,1.17-2.34,2.25-4.11,3.23c-1.76,0.98-3.9,1.78-6.41,2.39c-2.51,0.61-5.25,0.91-8.21,0.91c-5.76,0-10.24-1.12-13.44-3.34
	C289.2,223.14,286.95,220.21,285.65,216.59"/>
<path class="st0" d="M355.97,227.46c-0.46,0.19-1.34,0.32-2.65,0.42c-1.3,0.09-2.74,0.14-4.31,0.14c-1.58,0-3.09-0.16-4.53-0.49
	c-1.44-0.32-2.71-0.93-3.83-1.81c-1.12-0.88-2-2.06-2.64-3.55c-0.65-1.48-0.98-3.39-0.98-5.71v-88.01c0-0.09,0.7-0.21,2.08-0.35
	c1.39-0.14,2.84-0.21,4.32-0.21c1.49,0,2.97,0.14,4.46,0.42c1.49,0.28,2.83,0.81,4.04,1.6c1.2,0.79,2.18,1.9,2.92,3.34
	c0.75,1.44,1.11,3.32,1.11,5.64V227.46z"/>
<path class="st0" d="M425.18,210.47c0,7.33,1.07,12.67,3.2,16.01c-1.67,0.65-3.23,1.11-4.66,1.39c-1.44,0.28-2.95,0.42-4.52,0.42
	c-3.35,0-5.87-0.65-7.59-1.95c-1.72-1.3-2.81-3.15-3.27-5.57c-2.04,2.14-4.74,3.95-8.08,5.43c-3.34,1.48-7.43,2.22-12.25,2.22
	c-2.5,0-5.01-0.35-7.52-1.04c-2.51-0.7-4.79-1.83-6.83-3.4c-2.04-1.57-3.71-3.68-5.01-6.32c-1.3-2.63-1.95-5.85-1.95-9.65
	c0-4.72,1.14-8.56,3.41-11.52c2.27-2.96,5.13-5.3,8.57-7.01c3.43-1.71,7.15-2.89,11.14-3.54c3.99-0.65,7.66-1.07,11-1.25
	c1.12-0.09,2.21-0.14,3.27-0.14h3v-2.54c0-3.57-0.96-6.1-2.86-7.6c-1.9-1.51-4.99-2.26-9.26-2.26c-3.99,0-7.54,0.65-10.66,1.95
	c-3.11,1.3-6.15,2.78-9.12,4.45c-1.3-1.58-2.34-3.32-3.13-5.22c-0.79-1.9-1.18-3.32-1.18-4.25c0-1.3,0.72-2.55,2.16-3.76
	c1.44-1.21,3.41-2.3,5.92-3.27c2.5-0.98,5.38-1.77,8.63-2.37c3.25-0.6,6.69-0.9,10.3-0.9c5.02,0,9.26,0.51,12.74,1.53
	c3.48,1.02,6.31,2.6,8.5,4.73c2.18,2.14,3.74,4.8,4.66,8.01c0.93,3.2,1.39,6.94,1.39,11.21V210.47z M407.36,194.31h-1.95
	c-0.65,0-1.3,0.05-1.96,0.14c-2.32,0.19-4.62,0.47-6.89,0.84c-2.27,0.37-4.29,1.02-6.06,1.95c-1.76,0.93-3.2,2.14-4.31,3.62
	c-1.11,1.49-1.67,3.39-1.67,5.71c0,2.6,0.74,4.8,2.23,6.61c1.48,1.81,3.99,2.72,7.52,2.72c1.76,0,3.43-0.23,5.01-0.7
	c1.58-0.46,2.97-1.07,4.18-1.81c1.21-0.74,2.17-1.55,2.86-2.44c0.7-0.88,1.04-1.7,1.04-2.44V194.31z"/>
<path class="st0" d="M488.81,168.41c0,1.39-0.44,3.04-1.32,4.94c-0.88,1.9-1.83,3.69-2.85,5.36c-0.93-0.74-2.06-1.51-3.41-2.3
	c-1.35-0.79-2.86-1.53-4.53-2.23c-1.67-0.7-3.41-1.27-5.22-1.74c-1.81-0.46-3.65-0.7-5.5-0.7c-1.03,0-2.09,0.07-3.21,0.21
	c-1.11,0.14-2.11,0.42-2.99,0.84c-0.88,0.42-1.63,1.02-2.23,1.81c-0.6,0.79-0.9,1.84-0.9,3.14c0,3.15,3.39,5.48,10.17,6.96
	c2.78,0.56,5.54,1.28,8.28,2.16c2.73,0.88,5.2,2.11,7.38,3.69c2.18,1.58,3.94,3.57,5.29,5.99c1.35,2.42,2.02,5.43,2.02,9.05
	c0,3.71-0.72,7.01-2.16,9.89c-1.44,2.88-3.41,5.29-5.92,7.24c-2.51,1.95-5.46,3.43-8.84,4.45c-3.39,1.02-7.08,1.53-11.07,1.53
	c-4.08,0-7.54-0.3-10.37-0.9c-2.84-0.61-5.18-1.32-7.04-2.16c-1.3-0.55-2.71-1.36-4.25-2.44c-1.53-1.07-2.3-2.53-2.3-4.38
	c0-1.58,0.47-3.23,1.39-4.94c0.93-1.72,2-3.5,3.21-5.36c0.83,0.74,1.88,1.51,3.13,2.3c1.25,0.79,2.69,1.53,4.31,2.23
	c1.63,0.69,3.37,1.27,5.23,1.74c1.85,0.47,3.76,0.7,5.71,0.7c1.21,0,2.46-0.09,3.76-0.28c1.3-0.19,2.44-0.56,3.41-1.11
	c0.97-0.56,1.79-1.3,2.43-2.23c0.65-0.93,0.98-2.14,0.98-3.62c0-2.69-1.04-4.62-3.13-5.78c-2.09-1.16-5.22-2.16-9.4-2.99
	c-2.69-0.56-5.29-1.3-7.8-2.23c-2.51-0.93-4.74-2.16-6.69-3.69c-1.94-1.53-3.51-3.46-4.66-5.78c-1.17-2.32-1.74-5.15-1.74-8.5
	c0-3.34,0.74-6.26,2.23-8.77c1.49-2.51,3.46-4.64,5.92-6.41c2.46-1.76,5.32-3.08,8.57-3.97c3.24-0.88,6.63-1.32,10.16-1.32
	c3.71,0,7.03,0.28,9.96,0.84c2.93,0.55,5.46,1.3,7.59,2.23C486.5,163.54,488.63,165.72,488.81,168.41"/>
<path class="st0" d="M277.61,224.55l-20.62-37.61c-5.2,4.13-11.5,8.82-18.44,13.42l11.55,21.08l2.99,5.46h25.84L277.61,224.55z"/>
<path class="st0" d="M165.46,215.82l30.74-56.39l9.93-18.22l9.97,18.19l16.96,30.95c5.28-3.38,11.84-7.93,18.43-13.44l-45.46-82.96
	l-66,121.07C146.09,216.36,154.5,217.11,165.46,215.82"/>
<path class="st1" d="M176.46,226.89h1.48l0.23-0.42C177.6,226.61,177.03,226.75,176.46,226.89"/>
<path class="st1" d="M218.73,198.51c1-0.5,1.99-0.97,3.01-1.49c0,0,0.57-0.29,1.58-0.85l-17.16-31.31l-26.35,48.33
	c2.11-0.51,4.31-1.11,6.56-1.77C195.87,208.63,206.64,204.48,218.73,198.51"/>
<path class="st1" d="M228.92,206.38c-1.48,0.87-2.97,1.72-4.48,2.56c-2.63,1.44-5.29,2.83-7.99,4.11c0,0-16.9,8.06-38.28,13.42
	l-0.23,0.42h56.34h5.88L228.92,206.38z"/>
<path class="st2" d="M294.22,117.02c-2.99-4.74-7.46-7.96-12.46-10.15c-6.91-3.03-14.82-4.05-21.2-4.28
	c-6.98-0.26-12.13,0.41-12.13,0.41c9.92-0.47,17.23,1.31,22.6,3.92c11.24,5.47,13.94,14.62,13.94,14.62
	c4.47,23.6-13.52,44.87-31.18,59.55c-6.58,5.47-13.12,10.02-18.44,13.43c-4.21,2.7-7.64,4.68-9.73,5.85
	c-1.41,0.79-2.21,1.19-2.21,1.19c-0.81,0.41-1.57,0.78-2.37,1.17c-14.45,7.2-27.07,11.88-37.98,14.77c-2.22,0.59-4.36,1.1-6.44,1.55
	c-5.12,1.1-9.84,1.82-14.12,2.21c-10.93,0.98-19.18-0.05-25.02-1.54c-7.49-1.9-10.99-4.52-10.99-4.52
	c-14.14-10.24-12.97-24.07-8.06-35.55c2.94-6.88,7.23-12.92,10.37-16.85c-2.56,3.04-4.83,5.93-6.84,8.66
	c-6.92,9.36-10.82,16.73-12.8,21.04c-1.25,2.73-1.75,4.23-1.75,4.23c-8.2,26.41,19.73,32.59,19.73,32.59
	c9.5,2.24,20.02,2.24,30.4,1.02c6.44-0.75,12.82-1.98,18.88-3.44c0.01,0,0.02,0,0.03-0.01c0.57-0.14,1.14-0.27,1.71-0.42
	c21.38-5.36,38.29-13.42,38.29-13.42c2.69-1.29,5.37-2.67,7.99-4.12c1.51-0.83,3-1.69,4.48-2.55c3.32-1.95,6.54-3.98,9.63-6.02
	c6.94-4.6,13.24-9.29,18.44-13.42c9.19-7.28,14.99-12.79,14.99-12.79C309.01,138.46,294.22,117.02,294.22,117.02"/>
<path class="st3" d="M151.09,264.61c-1.28,0.49-3.8,1.29-6.77,1.29c-3.34,0-6.09-0.9-8.25-3.1c-1.9-1.95-3.08-5.08-3.08-8.74
	c0.03-7,4.55-12.11,11.95-12.11c2.55,0,4.55,0.59,5.5,1.08l-0.69,2.47c-1.18-0.56-2.65-1.01-4.88-1.01c-5.37,0-8.87,3.55-8.87,9.43
	c0,5.95,3.37,9.47,8.51,9.47c1.87,0,3.14-0.28,3.8-0.63v-7h-4.48v-2.44h7.27V264.61z"/>
<path class="st3" d="M157.11,257.79c0.07,4.14,2.55,5.85,5.43,5.85c2.06,0,3.3-0.38,4.39-0.87l0.49,2.19
	c-1.02,0.49-2.75,1.05-5.27,1.05c-4.88,0-7.79-3.41-7.79-8.49c0-5.08,2.82-9.08,7.43-9.08c5.17,0,6.55,4.84,6.55,7.94
	c0,0.63-0.07,1.11-0.1,1.43H157.11z M165.56,255.6c0.03-1.95-0.75-4.98-3.99-4.98c-2.91,0-4.19,2.85-4.42,4.98H165.56z"/>
<path class="st3" d="M171.91,253.37c0-1.74-0.03-3.17-0.13-4.56h2.55l0.16,2.79h0.06c0.79-1.6,2.62-3.17,5.24-3.17
	c2.19,0,5.6,1.39,5.6,7.17v10.06h-2.88v-9.71c0-2.72-0.95-4.98-3.66-4.98c-1.9,0-3.37,1.43-3.86,3.13c-0.13,0.38-0.2,0.91-0.2,1.43
	v10.13h-2.88V253.37z"/>
<path class="st3" d="M191.67,257.79c0.06,4.14,2.55,5.85,5.43,5.85c2.06,0,3.31-0.38,4.39-0.87l0.49,2.19
	c-1.01,0.49-2.75,1.05-5.27,1.05c-4.88,0-7.79-3.41-7.79-8.49c0-5.08,2.81-9.08,7.43-9.08c5.17,0,6.55,4.84,6.55,7.94
	c0,0.63-0.07,1.11-0.1,1.43H191.67z M200.12,255.6c0.03-1.95-0.75-4.98-3.99-4.98c-2.91,0-4.19,2.85-4.42,4.98H200.12z"/>
<path class="st3" d="M206.47,254.07c0-1.98-0.03-3.69-0.13-5.25h2.52l0.1,3.31h0.13c0.72-2.26,2.45-3.69,4.38-3.69
	c0.33,0,0.56,0.03,0.82,0.1v2.89c-0.3-0.07-0.59-0.1-0.98-0.1c-2.03,0-3.47,1.64-3.86,3.93c-0.07,0.42-0.13,0.9-0.13,1.43v8.98
	h-2.85V254.07z"/>
<path class="st3" d="M225.78,265.66l-0.23-2.12h-0.1c-0.88,1.32-2.59,2.5-4.84,2.5c-3.21,0-4.84-2.4-4.84-4.84
	c0-4.07,3.4-6.3,9.52-6.27v-0.35c0-1.39-0.36-3.9-3.6-3.9c-1.47,0-3.01,0.49-4.12,1.25l-0.65-2.02c1.31-0.91,3.21-1.5,5.2-1.5
	c4.84,0,6.02,3.51,6.02,6.89v6.3c0,1.46,0.07,2.89,0.26,4.04H225.78z M225.35,257.06c-3.14-0.07-6.71,0.52-6.71,3.79
	c0,1.98,1.24,2.92,2.72,2.92c2.06,0,3.37-1.39,3.83-2.82c0.1-0.31,0.16-0.66,0.16-0.98V257.06z"/>
<rect x="232.78" y="240.95" class="st3" width="2.88" height="24.71"/>
<rect x="247.54" y="242.2" class="st3" width="2.85" height="23.46"/>
<path class="st3" d="M255.59,253.37c0-1.74-0.03-3.17-0.13-4.56h2.55l0.16,2.79h0.06c0.79-1.6,2.62-3.17,5.24-3.17
	c2.19,0,5.6,1.39,5.6,7.17v10.06h-2.88v-9.71c0-2.72-0.95-4.98-3.67-4.98c-1.9,0-3.37,1.43-3.86,3.13c-0.13,0.38-0.2,0.91-0.2,1.43
	v10.13h-2.88V253.37z"/>
<path class="st3" d="M273.36,262.53c0.85,0.59,2.36,1.22,3.8,1.22c2.1,0,3.08-1.11,3.08-2.51c0-1.46-0.82-2.26-2.95-3.1
	c-2.85-1.08-4.19-2.75-4.19-4.77c0-2.72,2.06-4.94,5.47-4.94c1.6,0,3.01,0.49,3.9,1.04l-0.72,2.23c-0.62-0.42-1.77-0.97-3.24-0.97
	c-1.7,0-2.65,1.04-2.65,2.3c0,1.39,0.95,2.02,3.01,2.85c2.75,1.11,4.16,2.58,4.16,5.08c0,2.96-2.16,5.05-5.92,5.05
	c-1.73,0-3.34-0.45-4.45-1.15L273.36,262.53z"/>
<path class="st3" d="M299.97,261.06c0,1.74,0.03,3.27,0.13,4.59h-2.55l-0.16-2.75h-0.06c-0.75,1.36-2.42,3.13-5.24,3.13
	c-2.49,0-5.47-1.46-5.47-7.38v-9.85h2.88v9.33c0,3.2,0.92,5.36,3.54,5.36c1.93,0,3.27-1.43,3.8-2.79c0.16-0.45,0.26-1.01,0.26-1.57
	v-10.34h2.88V261.06z"/>
<path class="st3" d="M304.75,254.07c0-1.98-0.03-3.69-0.13-5.25h2.52l0.1,3.31h0.13c0.72-2.26,2.45-3.69,4.39-3.69
	c0.33,0,0.56,0.03,0.82,0.1v2.89c-0.29-0.07-0.59-0.1-0.98-0.1c-2.03,0-3.47,1.64-3.86,3.93c-0.07,0.42-0.13,0.9-0.13,1.43v8.98
	h-2.85V254.07z"/>
<path class="st3" d="M324.06,265.66l-0.23-2.12h-0.1c-0.88,1.32-2.58,2.5-4.84,2.5c-3.21,0-4.84-2.4-4.84-4.84
	c0-4.07,3.4-6.3,9.52-6.27v-0.35c0-1.39-0.36-3.9-3.6-3.9c-1.47,0-3.01,0.49-4.12,1.25l-0.65-2.02c1.31-0.91,3.21-1.5,5.2-1.5
	c4.84,0,6.02,3.51,6.02,6.89v6.3c0,1.46,0.07,2.89,0.26,4.04H324.06z M323.64,257.06c-3.14-0.07-6.71,0.52-6.71,3.79
	c0,1.98,1.24,2.92,2.72,2.92c2.06,0,3.37-1.39,3.83-2.82c0.1-0.31,0.16-0.66,0.16-0.98V257.06z"/>
<path class="st3" d="M331.06,253.37c0-1.74-0.03-3.17-0.13-4.56h2.55l0.16,2.79h0.07c0.79-1.6,2.62-3.17,5.24-3.17
	c2.19,0,5.6,1.39,5.6,7.17v10.06h-2.88v-9.71c0-2.72-0.95-4.98-3.66-4.98c-1.9,0-3.37,1.43-3.86,3.13c-0.13,0.38-0.2,0.91-0.2,1.43
	v10.13h-2.88V253.37z"/>
<path class="st3" d="M360.52,265.03c-0.75,0.42-2.42,0.98-4.55,0.98c-4.78,0-7.89-3.45-7.89-8.6c0-5.19,3.34-8.94,8.51-8.94
	c1.7,0,3.21,0.45,3.99,0.87l-0.65,2.37c-0.69-0.42-1.77-0.8-3.34-0.8c-3.63,0-5.6,2.85-5.6,6.37c0,3.9,2.36,6.3,5.5,6.3
	c1.64,0,2.72-0.45,3.54-0.83L360.52,265.03z"/>
<path class="st3" d="M365.3,257.79c0.07,4.14,2.55,5.85,5.43,5.85c2.06,0,3.3-0.38,4.39-0.87l0.49,2.19
	c-1.02,0.49-2.75,1.05-5.27,1.05c-4.88,0-7.79-3.41-7.79-8.49c0-5.08,2.82-9.08,7.43-9.08c5.17,0,6.55,4.84,6.55,7.94
	c0,0.63-0.07,1.11-0.1,1.43H365.3z M373.74,255.6c0.03-1.95-0.75-4.98-3.99-4.98c-2.91,0-4.19,2.85-4.42,4.98H373.74z"/>
<path class="st3" d="M386.74,261.97c1.28,0.83,3.14,1.53,5.11,1.53c2.91,0,4.61-1.64,4.61-4c0-2.19-1.18-3.45-4.16-4.66
	c-3.6-1.36-5.83-3.34-5.83-6.65c0-3.65,2.85-6.37,7.14-6.37c2.26,0,3.89,0.56,4.88,1.15l-0.79,2.47c-0.72-0.42-2.19-1.11-4.19-1.11
	c-3.01,0-4.16,1.91-4.16,3.52c0,2.19,1.34,3.27,4.38,4.52c3.73,1.53,5.63,3.44,5.63,6.89c0,3.62-2.52,6.75-7.72,6.75
	c-2.13,0-4.45-0.66-5.63-1.5L386.74,261.97z"/>
<path class="st3" d="M404.97,257.79c0.06,4.14,2.55,5.85,5.43,5.85c2.06,0,3.3-0.38,4.39-0.87l0.49,2.19
	c-1.01,0.49-2.75,1.05-5.27,1.05c-4.88,0-7.79-3.41-7.79-8.49c0-5.08,2.81-9.08,7.43-9.08c5.17,0,6.55,4.84,6.55,7.94
	c0,0.63-0.07,1.11-0.1,1.43H404.97z M413.41,255.6c0.03-1.95-0.75-4.98-3.99-4.98c-2.91,0-4.19,2.85-4.42,4.98H413.41z"/>
<path class="st3" d="M419.76,254.07c0-1.98-0.03-3.69-0.13-5.25h2.52l0.1,3.31h0.13c0.72-2.26,2.45-3.69,4.39-3.69
	c0.33,0,0.56,0.03,0.82,0.1v2.89c-0.29-0.07-0.59-0.1-0.98-0.1c-2.03,0-3.47,1.64-3.86,3.93c-0.07,0.42-0.13,0.9-0.13,1.43v8.98
	h-2.85V254.07z"/>
<path class="st3" d="M432.39,248.81l3.11,9.47c0.52,1.53,0.95,2.92,1.28,4.32h0.1c0.36-1.39,0.82-2.78,1.34-4.32l3.08-9.47h3.01
	l-6.22,16.85h-2.75l-6.02-16.85H432.39z"/>
<path class="st3" d="M450.23,244.08c0.03,1.04-0.69,1.88-1.83,1.88c-1.01,0-1.74-0.84-1.74-1.88c0-1.08,0.75-1.92,1.8-1.92
	C449.54,242.16,450.23,243,450.23,244.08 M447.02,248.81h2.88v16.85h-2.88V248.81z"/>
<path class="st3" d="M465.97,265.03c-0.75,0.42-2.42,0.98-4.55,0.98c-4.78,0-7.89-3.45-7.89-8.6c0-5.19,3.34-8.94,8.51-8.94
	c1.7,0,3.21,0.45,3.99,0.87l-0.65,2.37c-0.69-0.42-1.77-0.8-3.34-0.8c-3.63,0-5.6,2.85-5.6,6.37c0,3.9,2.36,6.3,5.5,6.3
	c1.64,0,2.72-0.45,3.54-0.83L465.97,265.03z"/>
<path class="st3" d="M470.75,257.79c0.07,4.14,2.55,5.85,5.43,5.85c2.06,0,3.3-0.38,4.39-0.87l0.49,2.19
	c-1.02,0.49-2.75,1.05-5.27,1.05c-4.88,0-7.79-3.41-7.79-8.49c0-5.08,2.82-9.08,7.43-9.08c5.17,0,6.55,4.84,6.55,7.94
	c0,0.63-0.07,1.11-0.1,1.43H470.75z M479.19,255.6c0.03-1.95-0.75-4.98-3.99-4.98c-2.91,0-4.19,2.85-4.42,4.98H479.19z"/>
<path class="st3" d="M485.15,262.53c0.85,0.59,2.36,1.22,3.8,1.22c2.09,0,3.08-1.11,3.08-2.51c0-1.46-0.82-2.26-2.95-3.1
	c-2.85-1.08-4.19-2.75-4.19-4.77c0-2.72,2.06-4.94,5.47-4.94c1.6,0,3.01,0.49,3.89,1.04l-0.72,2.23c-0.62-0.42-1.77-0.97-3.24-0.97
	c-1.7,0-2.65,1.04-2.65,2.3c0,1.39,0.95,2.02,3.01,2.85c2.75,1.11,4.16,2.58,4.16,5.08c0,2.96-2.16,5.05-5.92,5.05
	c-1.73,0-3.34-0.45-4.45-1.15L485.15,262.53z"/>
<g>
	<path d="M497.91,167.86v-7.58h-2.83v-1.01h6.81v1.01h-2.84v7.58H497.91z"/>
	<path d="M503.02,167.86v-8.59h1.71l2.03,6.08c0.19,0.57,0.32,0.99,0.41,1.27c0.1-0.31,0.25-0.77,0.46-1.38l2.06-5.98h1.53v8.59
		h-1.1v-7.19l-2.5,7.19h-1.03l-2.48-7.31v7.31H503.02z"/>
</g>
</svg>
